<?xml version="1.0" encoding="UTF-8"?>
<!DOCTYPE svg PUBLIC "-//W3C//DTD SVG 1.1//EN" "http://www.w3.org/Graphics/SVG/1.1/DTD/svg11.dtd">
<!-- Creator: CorelDRAW 2020 (64 Bit) -->
<svg xmlns="http://www.w3.org/2000/svg" xml:space="preserve" width="20.1998mm" height="20.1998mm" version="1.1" style="shape-rendering:geometricPrecision; text-rendering:geometricPrecision; image-rendering:optimizeQuality; fill-rule:evenodd; clip-rule:evenodd"
viewBox="0 0 7619.98 7619.98"
 xmlns:xlink="http://www.w3.org/1999/xlink"
 xmlns:xodm="http://www.corel.com/coreldraw/odm/2003">
 <defs>
  <style type="text/css">
   <![CDATA[
    .fil1 {fill:#E33F16}
    .fil0 {fill:white}
   ]]>
  </style>
 </defs>
 <g id="Camada_x0020_1">
  <metadata id="CorelCorpID_0Corel-Layer"/>
  <g id="_2810215137728">
   <path class="fil0" d="M2556.92 7154.33c6.79,-25.42 428.76,-639.13 464.38,-687.09 121.45,-163.52 346.47,-498.52 473.83,-686.1 246.04,-362.36 528.34,-757.93 765.28,-1114.32 205.49,-309.09 213.45,-229.75 95.08,-386.33l-443.85 -606.02c-17.3,-24.64 -152.43,-227.97 -186.32,-237.01 -8.88,33.25 -49.48,86.97 -69.42,116.84 -26.21,39.29 -46.52,74.34 -72.79,113.47l-995.78 1544.23c-19.61,30.69 -16.11,45.92 -47.34,54.26 -9.57,-35.82 -41.35,-67.3 -62.72,-98.14l-460.53 -674.01c-256.7,-386.8 -539.53,-778.11 -794.22,-1161.59 -88.66,-133.51 -175.83,-255.04 -264.11,-387.82l-330.2 -482.6c-23.36,-35.15 -42.59,-59.4 -66.09,-94.78 -26.93,-40.55 -109.78,-171.97 -138.8,-191.4l0 27.77c0.09,581.25 2.88,1163.18 0,1744.31l0 15.28c1.23,126.95 42.07,133.09 143.96,286.95l1574.74 2311.46c16.65,25.14 31.8,43.6 49.25,69.29 34.03,50.13 325.96,496.77 365.65,523.35z"/>
   <path class="fil0" d="M5079.99 5266.26c-29.8,-7.96 -65.5,-77.09 -93.13,-118.53l-262.47 -381 -594.99 810.47c-105.35,141.17 -92.76,112.87 -53.6,168.31 160.33,227.01 387.86,557.69 545.8,766.54 23.32,30.83 39.19,58.04 62.84,89.57l387.08 552.71 899.16 -1310.65c229.6,-345.35 489.61,-704.71 719.67,-1049.87l269.21 -391.18c30.73,-43.27 55.49,-86.83 88.27,-131.87 33.27,-45.7 58.56,-86.84 89.59,-130.54 47.81,-67.31 57.6,-66.73 59.24,-107.71l0 -67.57c-2.88,-581.13 -0.09,-1163.06 0,-1744.32l0 -27.77c-19.43,7.04 -6.93,0.5 -20,13.87l-51.07 75.93c-23.5,35.38 -42.72,59.63 -66.09,94.78 -23.14,34.82 -43.29,62.86 -66.01,94.85l-1386.18 2017.43c-25,33.28 -41.51,60.52 -64.99,95.88 -57.94,87.24 -451.69,640.83 -462.33,680.67z"/>
   <path class="fil1" d="M1811.85 3386.66l1219.21 0c10.27,-38.49 320.88,-455.4 364,-516.53l275.87 -384.53c17.33,-23.95 30.88,-42.79 45.86,-64.22 18.66,-26.72 22.84,-40.42 50.87,-59.19l601.13 889c19.68,29.51 76.35,104.32 84.67,135.47l1261.53 0c-7.72,-28.92 -40.06,-68.55 -57.58,-94.83l-243.76 -365.83c-22.81,-32.92 -41.57,-57.93 -62.73,-89.68l-732.79 -1096.01c-103.81,-156.09 -824.24,-1251.42 -858.94,-1274.66l-1828.8 2734.74c-20.52,30.78 -39.45,59.18 -60.96,91.44 -17.51,26.28 -49.85,65.91 -57.58,94.83z"/>
  </g>
 </g>
</svg>
